<svg id="svg2474" xmlns="http://www.w3.org/2000/svg" viewBox="0 0 1024 598">
  <path id="path2465" d="M28.38,274a4.09,4.09,0,0,0-4,3.87l-7.24,55,7.24,54a4.08,4.08,0,0,0,4,3.86,4.13,4.13,0,0,0,3.95-3.84h0l8.58-54-8.58-55A4.15,4.15,0,0,0,28.38,274Zm40.7-30a4.12,4.12,0,0,0-8.24,0s-9.73,88.88-9.73,88.88l9.73,86.91a4.12,4.12,0,0,0,8.23,0l11.07-86.93Zm153.3-82a7.63,7.63,0,0,0-7.48,7.42L207.15,332.9l7.75,105.68a7.49,7.49,0,0,0,15,0v0l8.76-105.69-8.76-163.52A7.69,7.69,0,0,0,222.38,162ZM143,218.79a6,6,0,0,0-5.81,5.72L128.5,332.86l8.73,104.82a5.81,5.81,0,0,0,11.61,0l9.92-104.82-9.92-108.37A6,6,0,0,0,143,218.79ZM303,445.95a9.29,9.29,0,0,0,9.17-9.1l7.6-103.9L312.2,115.25a9.18,9.18,0,0,0-18.36,0s-6.74,217.68-6.74,217.68l6.74,103.94A9.24,9.24,0,0,0,303,445.95Zm165.08.49a12.7,12.7,0,0,0,12.56-12.51v0L486,333l-5.3-251.43a12.56,12.56,0,0,0-25.12,0L450.8,332.93c0,.16,4.74,101.07,4.74,101.07A12.68,12.68,0,0,0,468.09,446.44ZM384.93,446a10.94,10.94,0,0,0,10.87-10.82v.07L402.24,333l-6.46-219.28a10.87,10.87,0,0,0-21.74,0L368.3,333,374,435.29A10.89,10.89,0,0,0,384.93,446Zm-202.37-1a6.79,6.79,0,0,0,6.64-6.53l9.34-105.7L189.2,232.31a6.65,6.65,0,0,0-13.29,0l-8.23,100.5,8.23,105.69A6.74,6.74,0,0,0,182.56,445.09Zm-78.72-5.79a5.12,5.12,0,0,0,5-4.84l10.49-101.62L108.81,227.38a5.14,5.14,0,0,0-5-4.85,5.08,5.08,0,0,0-5,4.85s-9.24,105.45-9.24,105.45l9.24,101.6A5.07,5.07,0,0,0,103.84,439.3ZM426.35,110a11.74,11.74,0,0,0-11.73,11.68L409.38,333l5.24,101.66a11.72,11.72,0,0,0,23.44-.07v.09L443.93,333,438.06,121.7A11.74,11.74,0,0,0,426.35,110ZM262.55,446.16a8.49,8.49,0,0,0,8.33-8.26l8.17-105L270.88,132a8.34,8.34,0,0,0-16.68,0S247,332.93,247,332.93l7.25,105A8.43,8.43,0,0,0,262.55,446.16Zm91.28-9.91v-.05l7-103.24-7-225a10,10,0,0,0-20,0l-6.24,225,6.25,103.29a10,10,0,0,0,20,0Zm531.28-233A121.52,121.52,0,0,0,838,212.69C828.34,103,736.34,16.92,624.12,16.92a217.61,217.61,0,0,0-77.87,14.55c-9.19,3.55-11.63,7.22-11.72,14.32V432.14a14.73,14.73,0,0,0,13.14,14.39c.31,0,335.25.2,337.42.2a121.74,121.74,0,0,0,0-243.48ZM509.65,45.45a13.54,13.54,0,0,0-13.42,13.38L490.74,333l5.5,99.52a13.41,13.41,0,0,0,26.81-.11v.12L529,333l-6-274.24A13.53,13.53,0,0,0,509.65,45.45ZM115.47,524.11c-14.4-3.38-18.3-5.19-18.3-10.9,0-4,3.25-8.18,13-8.18,8.31,0,14.8,3.37,20.64,9.34l13.1-12.71c-8.57-9-18.94-14.27-33.08-14.27-17.92,0-32.45,10.12-32.45,26.61,0,17.9,11.69,23.22,28.42,27.11C123.9,545,127,547.6,127,553.45c0,6.88-5.08,9.87-15.83,9.87-8.7,0-16.87-3-23.23-10.4L74.86,564.6c6.88,10.12,20.13,16.48,35.29,16.48,24.8,0,35.7-11.68,35.7-28.93C145.85,532.41,129.88,527.49,115.47,524.11Zm83.59-36.72c-24.78,0-39.43,19.2-39.43,46.84s14.66,46.83,39.43,46.83,39.45-19.19,39.45-46.83S223.84,487.39,199.06,487.39Zm0,75.65c-14.66,0-20.76-12.59-20.76-28.8s6.11-28.81,20.76-28.81,20.76,12.59,20.76,28.81S213.74,563,199.06,563Zm112.77-23.22c0,14.53-7.15,23.49-18.69,23.49s-18.55-9.22-18.55-23.74V488.81H256.42v51c0,26.46,14.8,41.25,36.73,41.25,23.1,0,36.86-15.19,36.86-41.51V488.81H311.84v51Zm96.53-12.59c0,5.07.26,16.48.26,19.85-1.17-2.34-4.15-6.88-6.35-10.26l-32.2-48H352.7v90.85h17.91v-40c0-5.07-.26-16.48-.26-19.85,1.16,2.33,4.16,6.88,6.35,10.26l33.36,49.57h16.22V488.8H408.37v38.43Zm69.68-38.42H449.64v90.85h27.11c23.36,0,46.47-13.51,46.47-45.42C523.21,501,504,488.81,478.05,488.81ZM476.74,562H467.8V506.47h9.6c19.21,0,27.13,9.21,27.13,27.77C504.53,550.85,495.83,562,476.74,562ZM579.4,505.42c8.17,0,13.37,3.64,16.61,9.87l16.87-7.78c-5.72-11.8-16.1-20.12-33.23-20.12-23.72,0-40.35,19.2-40.35,46.84,0,28.67,16,46.83,39.7,46.83,16.49,0,27.38-7.65,33.61-20.5l-15.3-9.09c-4.8,8.06-9.61,11.56-17.78,11.56C565.9,563,558,550.57,558,534.23,558,517.38,565.79,505.42,579.4,505.42Zm67.38-16.61H628.61v90.85h54.6V561.74H646.78Zm84.29-1.42c-24.8,0-39.45,19.2-39.45,46.84s14.66,46.83,39.45,46.83,39.44-19.19,39.44-46.83S755.85,487.39,731.07,487.39Zm0,75.65c-14.68,0-20.76-12.59-20.76-28.8s6.09-28.81,20.76-28.81,20.74,12.59,20.74,28.81S745.72,563,731.07,563Zm112.75-23.22c0,14.53-7.12,23.49-18.67,23.49s-18.56-9.22-18.56-23.74V488.81H788.43v51c0,26.46,14.79,41.25,36.73,41.25,23.1,0,36.85-15.19,36.85-41.51V488.81H843.83Zm69.3-51H884.72v90.85h27.11c23.37,0,46.46-13.51,46.46-45.42C958.28,501,939.08,488.81,913.12,488.81Zm-1.3,73.2h-9V506.47h9.61c19.19,0,27.11,9.21,27.11,27.77C939.59,550.85,930.9,562,911.83,562Z" style="fill: #fff"/>
</svg>
